<svg width="157" height="110" viewBox="0 0 157 110" fill="none" xmlns="http://www.w3.org/2000/svg">
<path d="M153.3 17.5C151.5 10.8 146.2 5.50002 139.5 3.70002C127.4 0.400024 78.7 0.400024 78.7 0.400024C78.7 0.400024 30 0.500024 17.9 3.80002C11.2 5.60002 5.90002 10.9 4.10002 17.6C0.900024 29.7 0.900024 55 0.900024 55C0.900024 55 0.900024 80.3 4.20002 92.5C6.00002 99.2 11.3 104.5 18 106.3C30.1 109.6 78.8 109.6 78.8 109.6C78.8 109.6 127.5 109.6 139.6 106.3C146.3 104.5 151.6 99.2 153.4 92.5C156.7 80.4 156.7 55 156.7 55C156.7 55 156.6 29.7 153.3 17.5Z" fill="#FF0000"/>
<path d="M63.2 78.4L103.6 55L63.2 31.6V78.4Z" fill="white"/>
</svg>
